<?xml version="1.0" encoding="UTF-8"?>
<svg width="712px" height="511px" viewBox="0 0 712 511" version="1.1" xmlns="http://www.w3.org/2000/svg" xmlns:xlink="http://www.w3.org/1999/xlink">
    <!-- Generator: Sketch 50.2 (55047) - http://www.bohemiancoding.com/sketch -->
    <title>Illustration</title>
    <desc>Created with Sketch.</desc>
    <defs></defs>
    <g id="Page-1" stroke="none" stroke-width="1" fill="none" fill-rule="evenodd">
        <g id="BetterDesk-Copy" transform="translate(-727.000000, -162.000000)">
            <g id="Header">
                <g id="Illustration" transform="translate(727.000000, 162.000000)">
                    <polyline id="Fill-148" fill="#545274" points="530.877544 309.509595 356.3845 81.5156601 204.944711 323.982797 530.877544 309.509595"></polyline>
                    <polyline id="Fill-149" fill="#6A708D" points="612.849878 345.654118 437.226411 59.8108758 280.037522 302.274667 612.849878 345.654118"></polyline>
                    <polyline id="Fill-150" fill="#8F99C0" points="630.016911 414.359163 478.577122 171.895373 327.140678 414.359163 630.016911 414.359163"></polyline>
                    <polyline id="Fill-151" fill="#535173" points="485.559883 425.180445 272.176849 144.190484 76.8324222 442 485.559883 425.180445"></polyline>
                    <path d="M627.475133,382.444497 C627.639011,379.727216 627.722622,340.614431 627.722622,337.786719 C627.722622,306.745464 617.378256,281.57715 604.6192,281.57715 C591.863489,281.57715 581.515778,306.745464 581.515778,337.786719 C581.515778,340.614431 581.599389,379.727216 581.769956,382.444497 L627.475133,382.444497" id="Fill-152" fill="#439A86"></path>
                    <path d="M672.484222,402.351934 C672.484222,378.96344 659.391308,360 643.242111,360 C627.097147,360 614,378.96344 614,402.351934 C614,404.482516 614.105827,433.952624 614.321714,436 L672.170974,436 C672.378395,433.952624 672.484222,404.482516 672.484222,402.351934 Z" id="Fill-152-Copy" fill="#439A86" opacity="0.517140858"></path>
                    <path d="M715,418.962279 C715,405.729315 705.373552,395 693.5,395 C681.62956,395 672,405.729315 672,418.962279 C672,420.167739 672.077808,436.841616 672.236537,438 L714.769687,438 C714.922192,436.841616 715,420.167739 715,418.962279 Z" id="Fill-152-Copy-2" fill="#439A86" opacity="0.2578125"></path>
                    <path d="M121.156344,403.607163 C121.326911,400.889882 121.413867,361.777098 121.413867,358.949386 C121.413867,327.908131 111.066156,302.739817 98.3071,302.739817 C85.5447,302.739817 75.1969889,327.908131 75.1969889,358.949386 C75.1969889,361.777098 75.2906333,400.889882 75.4511667,403.607163 L121.156344,403.607163" id="Fill-153" fill="#255654"></path>
                    <path d="M588.238111,341.936261 C588.388611,339.459922 588.465533,303.89098 588.465533,301.314248 C588.465533,273.080627 579.060956,250.191216 567.452389,250.191216 C555.843822,250.191216 546.439244,273.080627 546.439244,301.314248 C546.439244,303.89098 546.516167,339.459922 546.666667,341.936261 L588.238111,341.936261" id="Fill-154" fill="#366866"></path>
                    <path d="M556.770233,391.590222 C556.954178,388.692235 557.047822,347.019451 557.047822,344.000993 C557.047822,310.921778 546.021189,284.107033 532.426022,284.107033 C518.827511,284.107033 507.800878,310.921778 507.800878,344.000993 C507.800878,347.019451 507.897867,388.692235 508.068433,391.590222 L556.770233,391.590222" id="Fill-155" fill="#2E6260"></path>
                    <path d="M521.747211,398.420235 C521.931156,395.522248 522.021456,353.849464 522.021456,350.831007 C522.021456,317.751791 510.994822,290.937046 497.403,290.937046 C483.801144,290.937046 472.774511,317.751791 472.774511,350.831007 C472.774511,353.849464 472.874844,395.522248 473.042067,398.420235 L521.747211,398.420235" id="Fill-156" fill="#366839"></path>
                    <path d="M277.198089,377.883346 C277.348589,375.413699 277.425511,339.838065 277.425511,337.261333 C277.425511,309.034405 268.020933,286.138301 256.412367,286.138301 C244.8038,286.138301 235.399222,309.034405 235.399222,337.261333 C235.399222,339.838065 235.476144,375.413699 235.626644,377.883346 L277.198089,377.883346" id="Fill-157" fill="#366839"></path>
                    <path d="M184.827878,377.883346 C184.978378,375.413699 185.0553,339.838065 185.0553,337.261333 C185.0553,309.034405 175.647378,286.138301 164.042156,286.138301 C152.433589,286.138301 143.029011,309.034405 143.029011,337.261333 C143.029011,339.838065 143.105933,375.413699 143.256433,377.883346 L184.827878,377.883346" id="Fill-158" fill="#366839"></path>
                    <polyline id="Fill-159" fill="#8396C0" points="119.099511 271.792261 256.412367 430.321516 80.8758556 412.960366 89.3841222 352.490824 119.099511 271.792261"></polyline>
                    <polyline id="Fill-159-Copy" fill="#8396C0" opacity="0.375233209" points="39.0995111 351.792261 176.412367 510.321516 0.875855556 492.960366 9.38412222 432.490824 39.0995111 351.792261"></polyline>
                    <path d="M222.934478,209.522353 C222.248867,199.329203 213.784078,191.274405 203.422989,191.274405 C201.5802,191.274405 199.8043,191.54881 198.112011,192.020654 C198.1187,191.766327 198.152144,191.528732 198.152144,191.274405 C198.152144,176.928366 186.5302,165.302954 172.192567,165.302954 C157.854933,165.302954 146.236333,176.928366 146.236333,191.274405 C146.236333,191.458458 146.259744,191.629124 146.259744,191.80983 C144.791533,191.471843 143.263122,191.274405 141.694578,191.274405 C131.186333,191.274405 122.554322,199.282353 121.564367,209.522353 L222.934478,209.522353" id="Fill-160" fill="#6674A9"></path>
                    <path d="M256.562867,438.282614 C257.268544,433.503948 257.646467,428.61485 257.646467,423.635399 C257.646467,369.015373 213.386089,324.719007 158.794722,324.719007 C104.200011,324.719007 59.9396333,369.015373 59.9396333,423.635399 C59.9396333,428.61485 60.3175556,433.503948 61.0232333,438.282614 L256.562867,438.282614" id="Fill-162" fill="#3D8066"></path>
                    <path d="M402.059578,447.635817 C402.745189,443.001046 403.109733,438.269229 403.109733,433.450405 C403.109733,380.57051 360.260711,337.69302 307.408456,337.69302 C254.5562,337.69302 211.707178,380.57051 211.707178,433.450405 C211.707178,438.269229 212.071722,443.001046 212.757333,447.635817 L402.059578,447.635817" id="Fill-163" fill="#3D8080"></path>
                    <path d="M531.375867,441.950275 C532.061478,437.322196 532.426022,432.590379 532.426022,427.771556 C532.426022,374.888314 489.570311,332.01417 436.724744,332.01417 C383.872489,332.01417 341.023467,374.888314 341.023467,427.771556 C341.023467,432.590379 341.381322,437.322196 342.073622,441.950275 L531.375867,441.950275" id="Fill-164" fill="#3D6C80"></path>
                    <path d="M641.087022,439.443817 C641.775978,434.819085 642.140522,430.087268 642.140522,425.261752 C642.140522,372.37851 599.281467,329.504366 546.439244,329.504366 C493.586989,329.504366 450.734622,372.37851 450.734622,425.261752 C450.734622,430.087268 451.095822,434.819085 451.788122,439.443817 L641.087022,439.443817" id="Fill-165" fill="#3D806E"></path>
                    <path d="M304.0707,74.1201046 L309.8198,74.1201046 C308.813122,59.4661961 296.642689,47.8842876 281.749878,47.8842876 C279.097733,47.8842876 276.542578,48.2691242 274.114511,48.9484444 C274.127889,48.5903791 274.171367,48.2423529 274.171367,47.8842876 C274.171367,27.2436601 257.462522,10.5317124 236.840678,10.5317124 C216.232211,10.5317124 199.516678,27.2436601 199.516678,47.8842876 C199.516678,48.1386144 199.550122,48.3929412 199.556811,48.647268 C197.439778,48.1586928 195.245822,47.8842876 192.978289,47.8842876 C177.881467,47.8842876 165.476922,59.3925752 164.042156,74.1201046 L304.0707,74.1201046" id="Fill-224" fill="#FFFFFE"></path>
                    <path d="M469.436756,44.7855163 C468.737767,34.5890196 460.279667,26.5375686 449.911889,26.5375686 C448.075789,26.5375686 446.299889,26.805281 444.6076,27.2771242 C444.620978,27.0261438 444.647733,26.7852026 444.647733,26.5375686 C444.647733,12.1848366 433.025789,0.556078431 418.688156,0.556078431 C404.357211,0.556078431 392.731922,12.1848366 392.731922,26.5375686 C392.731922,26.7149281 392.751989,26.8889412 392.755333,27.0729935 C391.287122,26.7249673 389.7654,26.5375686 388.190167,26.5375686 C377.681922,26.5375686 369.059944,34.5421699 368.053267,44.7855163 L469.436756,44.7855163" id="Fill-225" fill="#6674A9"></path>
                    <path d="M321.1976,488.164131 C320.963489,479.968784 314.287978,473.386405 306.043922,473.386405 C297.799867,473.386405 291.124356,479.968784 290.8869,488.164131 L321.1976,488.164131" id="Fill-252" fill="#493929"></path>
                    <path d="M359.157044,488.164131 C358.926278,479.968784 352.244078,473.386405 344.000022,473.386405 C335.759311,473.386405 329.080456,479.968784 328.846344,488.164131 L359.157044,488.164131" id="Fill-253" fill="#493929"></path>
                    <path d="M492.573622,488.164131 C492.389678,481.682144 487.098767,476.471791 480.580444,476.471791 C474.055433,476.471791 468.771211,481.682144 468.587267,488.164131 L492.573622,488.164131" id="Fill-254" fill="#493929"></path>
                    <path d="M509.830956,469.90949 C509.693833,464.799529 505.519967,460.686797 500.379556,460.686797 C495.232456,460.686797 491.058589,464.799529 490.914778,469.90949 L509.830956,469.90949" id="Fill-255" fill="#FEEFAE"></path>
                    <path d="M403.594678,453.980601 C403.450867,448.863948 399.283689,444.751216 394.136589,444.751216 C388.989489,444.751216 384.818967,448.863948 384.675156,453.980601 L403.594678,453.980601" id="Fill-256" fill="#FEEFAE"></path>
                    <path d="M264.138033,488.164131 C263.994222,483.05417 259.820356,478.934745 254.679944,478.934745 C249.532844,478.934745 245.365667,483.05417 245.215167,488.164131 L264.138033,488.164131" id="Fill-257" fill="#FEEFAE"></path>
                    <path d="M158.794722,488.164131 C158.650911,483.05417 154.483733,478.934745 149.336633,478.934745 C144.189533,478.934745 140.022356,483.05417 139.871856,488.164131 L158.794722,488.164131" id="Fill-258" fill="#493929"></path>
                    <path d="M95.7486,458.973438 C95.6047889,453.863477 91.4376111,449.754092 86.2905111,449.754092 C81.1434111,449.754092 76.9762333,453.863477 76.8324222,458.973438 L95.7486,458.973438" id="Fill-259" fill="#493929"></path>
                    <path d="M604.324889,488.164131 C604.181078,483.05417 600.0139,478.934745 594.873489,478.934745 C589.726389,478.934745 585.552522,483.05417 585.408711,488.164131 L604.324889,488.164131" id="Fill-260" fill="#493929"></path>
                    <path d="M536.372467,488.164131 C536.145044,479.975477 529.4595,473.386405 521.225478,473.386405 C512.974733,473.386405 506.305911,479.975477 506.061767,488.164131 L536.372467,488.164131" id="Fill-261" fill="#493929"></path>
                </g>
            </g>
            <rect id="Rectangle" fill="#FFFFFF" x="0" y="582" width="1475" height="163"></rect>
        </g>
    </g>
</svg>