<?xml version="1.0" encoding="UTF-8"?>
<svg width="706px" height="431px" viewBox="0 0 706 431" version="1.1" xmlns="http://www.w3.org/2000/svg" xmlns:xlink="http://www.w3.org/1999/xlink">
    <!-- Generator: Sketch 50.2 (55047) - http://www.bohemiancoding.com/sketch -->
    <title>Group</title>
    <desc>Created with Sketch.</desc>
    <defs></defs>
    <g id="Page-1" stroke="none" stroke-width="1" fill="none" fill-rule="evenodd">
        <g id="Group" fill-rule="nonzero">
            <polyline id="Fill-148" fill="#545274" points="521.877544 309.509595 347.3845 81.5156601 195.944711 323.982797 521.877544 309.509595"></polyline>
            <polyline id="Fill-149" fill="#6A708D" points="603.849878 345.654118 428.226411 59.8108758 271.037522 302.274667 603.849878 345.654118"></polyline>
            <polyline id="Fill-150" fill="#8F99C0" points="621.016911 414.359163 469.577122 171.895373 318.140678 414.359163 621.016911 414.359163"></polyline>
            <path d="M359.441179,430 L75.7036721,430 L263.176849,144.190484 L476.559883,425.180445 L359.441179,430 Z" id="Combined-Shape" fill="#535173"></path>
            <path d="M618.475133,382.444497 C618.639011,379.727216 618.722622,340.614431 618.722622,337.786719 C618.722622,306.745464 608.378256,281.57715 595.6192,281.57715 C582.863489,281.57715 572.515778,306.745464 572.515778,337.786719 C572.515778,340.614431 572.599389,379.727216 572.769956,382.444497 L618.475133,382.444497" id="Fill-152" fill="#439A86"></path>
            <path d="M663.309667,430 L605.178059,430 C605.058769,420.709883 605,403.939656 605,402.351934 C605,378.96344 618.097147,360 634.242111,360 C650.391308,360 663.484222,378.96344 663.484222,402.351934 C663.484222,403.939656 663.425453,420.709883 663.309667,430 Z" id="Combined-Shape" fill="#439A86" opacity="0.517140858"></path>
            <path d="M705.928307,430 L663.072764,430 C663.024076,425.089767 663,419.632833 663,418.962279 C663,405.729315 672.62956,395 684.5,395 C696.373552,395 706,405.729315 706,418.962279 C706,419.632833 705.975924,425.089767 705.928307,430 Z" id="Combined-Shape" fill="#439A86" opacity="0.2578125"></path>
            <path d="M112.156344,403.607163 C112.326911,400.889882 112.413867,361.777098 112.413867,358.949386 C112.413867,327.908131 102.066156,302.739817 89.3071,302.739817 C76.5447,302.739817 66.1969889,327.908131 66.1969889,358.949386 C66.1969889,361.777098 66.2906333,400.889882 66.4511667,403.607163 L112.156344,403.607163" id="Fill-153" fill="#255654"></path>
            <path d="M579.238111,341.936261 C579.388611,339.459922 579.465533,303.89098 579.465533,301.314248 C579.465533,273.080627 570.060956,250.191216 558.452389,250.191216 C546.843822,250.191216 537.439244,273.080627 537.439244,301.314248 C537.439244,303.89098 537.516167,339.459922 537.666667,341.936261 L579.238111,341.936261" id="Fill-154" fill="#366866"></path>
            <path d="M547.770233,391.590222 C547.954178,388.692235 548.047822,347.019451 548.047822,344.000993 C548.047822,310.921778 537.021189,284.107033 523.426022,284.107033 C509.827511,284.107033 498.800878,310.921778 498.800878,344.000993 C498.800878,347.019451 498.897867,388.692235 499.068433,391.590222 L547.770233,391.590222" id="Fill-155" fill="#2E6260"></path>
            <path d="M512.747211,398.420235 C512.931156,395.522248 513.021456,353.849464 513.021456,350.831007 C513.021456,317.751791 501.994822,290.937046 488.403,290.937046 C474.801144,290.937046 463.774511,317.751791 463.774511,350.831007 C463.774511,353.849464 463.874844,395.522248 464.042067,398.420235 L512.747211,398.420235" id="Fill-156" fill="#366839"></path>
            <path d="M268.198089,377.883346 C268.348589,375.413699 268.425511,339.838065 268.425511,337.261333 C268.425511,309.034405 259.020933,286.138301 247.412367,286.138301 C235.8038,286.138301 226.399222,309.034405 226.399222,337.261333 C226.399222,339.838065 226.476144,375.413699 226.626644,377.883346 L268.198089,377.883346" id="Fill-157" fill="#366839"></path>
            <path d="M175.827878,377.883346 C175.978378,375.413699 176.0553,339.838065 176.0553,337.261333 C176.0553,309.034405 166.647378,286.138301 155.042156,286.138301 C143.433589,286.138301 134.029011,309.034405 134.029011,337.261333 C134.029011,339.838065 134.105933,375.413699 134.256433,377.883346 L175.827878,377.883346" id="Fill-158" fill="#366839"></path>
            <polyline id="Fill-159" fill="#8396C0" points="110.099511 271.792261 247.412367 430.321516 71.8758556 412.960366 80.3841222 352.490824 110.099511 271.792261"></polyline>
            <path d="M98.7066641,431 L0.933083853,431 L30.0995111,351.792261 L98.7066641,431 Z" id="Combined-Shape" fill="#8396C0" opacity="0.375233209"></path>
            <path d="M213.934478,209.522353 C213.248867,199.329203 204.784078,191.274405 194.422989,191.274405 C192.5802,191.274405 190.8043,191.54881 189.112011,192.020654 C189.1187,191.766327 189.152144,191.528732 189.152144,191.274405 C189.152144,176.928366 177.5302,165.302954 163.192567,165.302954 C148.854933,165.302954 137.236333,176.928366 137.236333,191.274405 C137.236333,191.458458 137.259744,191.629124 137.259744,191.80983 C135.791533,191.471843 134.263122,191.274405 132.694578,191.274405 C122.186333,191.274405 113.554322,199.282353 112.564367,209.522353 L213.934478,209.522353" id="Fill-160" fill="#6674A9"></path>
            <path d="M51.1448159,430.000001 C51.0093525,427.896196 50.9396333,425.774132 50.9396333,423.635399 C50.9396333,369.015373 95.200011,324.719007 149.794722,324.719007 C204.386089,324.719007 248.646467,369.015373 248.646467,423.635399 C248.646467,425.774132 248.576748,427.896196 248.441284,430.000001 L51.1448171,430 Z" id="Combined-Shape" fill="#3D8066"></path>
            <path d="M202.768165,429.999979 C204.583809,378.717865 246.710625,337.69302 298.408456,337.69302 C350.106286,337.69302 392.233102,378.717865 394.048746,429.999979 L202.768164,430 Z" id="Combined-Shape" fill="#3D8080"></path>
            <path d="M442.116532,430.495635 C442.039203,428.926707 442,427.347131 442,425.757386 C442,372.874144 484.852367,330 537.704622,330 C590.546845,330 633.4059,372.874144 633.4059,425.757386 C633.4059,427.347131 633.366334,428.926707 633.288638,430.495635 L442.116534,430.495634 Z" id="Combined-Shape" fill="#3D806E"></path>
            <path d="M346.116532,430.495635 C346.039203,428.926707 346,427.347131 346,425.757386 C346,372.874144 388.852367,330 441.704622,330 C494.546845,330 537.4059,372.874144 537.4059,425.757386 C537.4059,427.347131 537.366334,428.926707 537.288638,430.495635 L346.116534,430.495634 Z" id="Combined-Shape-Copy" fill="#3D6C80"></path>
            <path d="M295.0707,74.1201046 L300.8198,74.1201046 C299.813122,59.4661961 287.642689,47.8842876 272.749878,47.8842876 C270.097733,47.8842876 267.542578,48.2691242 265.114511,48.9484444 C265.127889,48.5903791 265.171367,48.2423529 265.171367,47.8842876 C265.171367,27.2436601 248.462522,10.5317124 227.840678,10.5317124 C207.232211,10.5317124 190.516678,27.2436601 190.516678,47.8842876 C190.516678,48.1386144 190.550122,48.3929412 190.556811,48.647268 C188.439778,48.1586928 186.245822,47.8842876 183.978289,47.8842876 C168.881467,47.8842876 156.476922,59.3925752 155.042156,74.1201046 L295.0707,74.1201046" id="Fill-224" fill="#FFFFFE"></path>
            <path d="M460.436756,44.7855163 C459.737767,34.5890196 451.279667,26.5375686 440.911889,26.5375686 C439.075789,26.5375686 437.299889,26.805281 435.6076,27.2771242 C435.620978,27.0261438 435.647733,26.7852026 435.647733,26.5375686 C435.647733,12.1848366 424.025789,0.556078431 409.688156,0.556078431 C395.357211,0.556078431 383.731922,12.1848366 383.731922,26.5375686 C383.731922,26.7149281 383.751989,26.8889412 383.755333,27.0729935 C382.287122,26.7249673 380.7654,26.5375686 379.190167,26.5375686 C368.681922,26.5375686 360.059944,34.5421699 359.053267,44.7855163 L460.436756,44.7855163" id="Fill-225" fill="#6674A9"></path>
        </g>
    </g>
</svg>